<?xml version="1.0" standalone="no"?>
<!DOCTYPE svg PUBLIC "-//W3C//DTD SVG 20010904//EN"
 "http://www.w3.org/TR/2001/REC-SVG-20010904/DTD/svg10.dtd">
<svg version="1.0" xmlns="http://www.w3.org/2000/svg"
 width="64.000000pt" height="64.000000pt" viewBox="0 0 64.000000 64.000000"
 preserveAspectRatio="xMidYMid meet">

<g transform="translate(0.000000,64.000000) scale(0.100000,-0.100000)"
fill="#000000" stroke="none">
<path d="M0 320 l0 -320 320 0 320 0 0 320 0 320 -320 0 -320 0 0 -320z m203
114 c-8 -4 -6 -23 9 -67 11 -34 24 -66 28 -70 10 -11 54 119 45 133 -4 6 15
10 52 9 32 0 53 -3 47 -5 -8 -3 -5 -26 10 -74 11 -39 23 -70 26 -70 3 0 16 30
28 67 16 51 19 69 9 75 -7 5 -1 8 16 8 23 0 26 -3 17 -17 -6 -10 -23 -56 -39
-103 -16 -50 -33 -85 -41 -85 -8 0 -26 39 -45 94 -17 52 -36 96 -42 98 -6 2
-26 -40 -45 -94 -20 -53 -40 -99 -45 -100 -6 -2 -25 38 -43 89 -18 51 -37 99
-43 106 -7 9 0 12 29 11 22 0 34 -3 27 -5z"/>
</g>
</svg>
